<?xml version="1.0" encoding="UTF-8"?>
<svg xmlns="http://www.w3.org/2000/svg" xmlns:xlink="http://www.w3.org/1999/xlink" viewBox="0 0 100 100" width="100px" height="100px">
<g id="surface93150723">
<path style=" stroke:none;fill-rule:nonzero;fill:rgb(100%,100%,100%);fill-opacity:1;" d="M 34.179688 10.164062 C 32.105469 10.164062 30.613281 11.425781 30.613281 13.699219 L 30.648438 25.808594 C 30.648438 28.847656 32.769531 30.714844 35.613281 30.714844 C 38.460938 30.714844 40.613281 29.003906 40.613281 25.964844 L 40.613281 14.308594 L 39.613281 14.308594 L 39.523438 25.871094 C 39.523438 28.078125 37.597656 29.808594 35.648438 29.808594 C 33.699219 29.808594 31.613281 28.050781 31.613281 25.839844 L 31.644531 13.613281 C 31.644531 12.304688 33.078125 11.128906 34.269531 11.128906 C 35.464844 11.128906 36.613281 12.273438 36.613281 13.582031 L 36.613281 24.058594 C 36.613281 24.058594 36.140625 25.058594 35.632812 25.058594 C 35.125 25.058594 34.484375 24.699219 34.613281 24.152344 L 34.613281 14.308594 L 33.613281 14.308594 L 33.582031 23.964844 C 33.582031 25.34375 34.320312 25.964844 35.65625 25.964844 C 36.992188 25.964844 37.613281 25.25 37.613281 23.871094 L 37.613281 13.664062 C 37.613281 11.394531 36.253906 10.164062 34.179688 10.164062 Z M 41.613281 11.304688 C 41.0625 11.304688 40.613281 11.753906 40.613281 12.304688 C 40.613281 12.859375 41.0625 13.304688 41.613281 13.304688 L 59.613281 13.304688 L 59.613281 23.792969 C 59.613281 29.039062 63.882812 33.304688 69.128906 33.304688 L 79.613281 33.304688 L 79.613281 82.574219 C 79.613281 86.835938 76.148438 90.304688 71.882812 90.304688 L 28.347656 90.304688 C 24.085938 90.304688 20.613281 86.839844 20.613281 82.574219 L 20.613281 21.039062 C 20.613281 16.777344 24.082031 13.308594 28.347656 13.308594 L 29.613281 13.308594 C 30.167969 13.308594 30.613281 12.859375 30.613281 12.308594 C 30.613281 11.757812 30.167969 11.308594 29.613281 11.308594 L 28.347656 11.308594 C 22.980469 11.308594 18.613281 15.671875 18.613281 21.039062 L 18.613281 82.574219 C 18.613281 87.941406 22.980469 92.304688 28.347656 92.304688 L 71.882812 92.304688 C 77.25 92.304688 81.613281 87.941406 81.613281 82.574219 L 81.613281 32.554688 C 81.613281 32.289062 81.507812 32.035156 81.320312 31.847656 L 61.070312 11.597656 C 60.886719 11.410156 60.628906 11.304688 60.363281 11.304688 Z M 60.613281 13.964844 L 78.949219 32.304688 L 69.128906 32.304688 C 64.433594 32.304688 60.613281 28.488281 60.613281 23.792969 Z M 28.371094 19.507812 C 28.246094 19.480469 28.109375 19.507812 27.996094 19.585938 C 25.878906 21.023438 24.613281 23.40625 24.613281 25.957031 L 24.613281 78.617188 C 24.613281 82.855469 28.046875 86.308594 32.269531 86.308594 L 67.953125 86.308594 C 72.179688 86.308594 75.613281 82.855469 75.613281 78.617188 L 75.613281 60.808594 C 75.613281 60.53125 75.390625 60.308594 75.113281 60.308594 C 74.839844 60.308594 74.613281 60.53125 74.613281 60.808594 L 74.613281 78.617188 C 74.613281 82.304688 71.628906 85.308594 67.957031 85.308594 L 32.273438 85.308594 C 28.601562 85.308594 25.613281 82.304688 25.613281 78.617188 L 25.613281 25.957031 C 25.613281 23.738281 26.714844 21.664062 28.558594 20.410156 C 28.785156 20.253906 28.847656 19.945312 28.691406 19.714844 C 28.613281 19.601562 28.496094 19.53125 28.371094 19.507812 Z M 75.113281 47.304688 C 74.835938 47.304688 74.613281 47.53125 74.613281 47.804688 L 74.613281 50.804688 C 74.613281 51.082031 74.835938 51.304688 75.113281 51.304688 C 75.390625 51.304688 75.613281 51.082031 75.613281 50.804688 L 75.613281 47.804688 C 75.613281 47.53125 75.390625 47.304688 75.113281 47.304688 Z M 30.113281 51.304688 C 29.835938 51.304688 29.613281 51.53125 29.613281 51.804688 C 29.613281 52.082031 29.835938 52.304688 30.113281 52.304688 L 53.113281 52.304688 C 53.390625 52.304688 53.613281 52.082031 53.613281 51.804688 C 53.613281 51.53125 53.390625 51.304688 53.113281 51.304688 Z M 75.113281 52.304688 C 74.835938 52.304688 74.613281 52.53125 74.613281 52.804688 L 74.613281 58.804688 C 74.613281 59.082031 74.835938 59.304688 75.113281 59.304688 C 75.390625 59.304688 75.613281 59.082031 75.613281 58.804688 L 75.613281 52.804688 C 75.613281 52.53125 75.390625 52.304688 75.113281 52.304688 Z M 30.113281 58.304688 C 29.835938 58.304688 29.613281 58.53125 29.613281 58.804688 C 29.613281 59.082031 29.835938 59.304688 30.113281 59.304688 L 44.113281 59.304688 C 44.390625 59.304688 44.613281 59.082031 44.613281 58.804688 C 44.613281 58.53125 44.390625 58.304688 44.113281 58.304688 Z M 46.113281 58.304688 C 45.835938 58.304688 45.613281 58.53125 45.613281 58.804688 C 45.613281 59.082031 45.835938 59.304688 46.113281 59.304688 L 70.113281 59.304688 C 70.390625 59.304688 70.613281 59.082031 70.613281 58.804688 C 70.613281 58.53125 70.390625 58.304688 70.113281 58.304688 Z M 30.113281 65.304688 C 29.835938 65.304688 29.613281 65.53125 29.613281 65.804688 C 29.613281 66.082031 29.835938 66.304688 30.113281 66.304688 L 48.113281 66.304688 C 48.390625 66.304688 48.613281 66.082031 48.613281 65.804688 C 48.613281 65.53125 48.390625 65.304688 48.113281 65.304688 Z M 50.113281 65.304688 C 49.835938 65.304688 49.613281 65.53125 49.613281 65.804688 C 49.613281 66.082031 49.835938 66.304688 50.113281 66.304688 L 61.113281 66.304688 C 61.390625 66.304688 61.613281 66.082031 61.613281 65.804688 C 61.613281 65.53125 61.390625 65.304688 61.113281 65.304688 Z M 63.113281 65.304688 C 62.835938 65.304688 62.613281 65.53125 62.613281 65.804688 C 62.613281 66.082031 62.835938 66.304688 63.113281 66.304688 L 71.113281 66.304688 C 71.390625 66.304688 71.613281 66.082031 71.613281 65.804688 C 71.613281 65.53125 71.390625 65.304688 71.113281 65.304688 Z M 30.113281 72.304688 C 29.835938 72.304688 29.613281 72.53125 29.613281 72.804688 C 29.613281 73.082031 29.835938 73.304688 30.113281 73.304688 L 54.113281 73.304688 C 54.390625 73.304688 54.613281 73.082031 54.613281 72.804688 C 54.613281 72.53125 54.390625 72.304688 54.113281 72.304688 Z M 57.113281 72.304688 C 56.835938 72.304688 56.613281 72.53125 56.613281 72.804688 C 56.613281 73.082031 56.835938 73.304688 57.113281 73.304688 L 70.113281 73.304688 C 70.390625 73.304688 70.613281 73.082031 70.613281 72.804688 C 70.613281 72.53125 70.390625 72.304688 70.113281 72.304688 Z M 57.113281 72.304688 "/>
</g>
</svg>
